<svg xmlns="http://www.w3.org/2000/svg" xmlns:xlink="http://www.w3.org/1999/xlink" viewBox="0,0,256,256" width="128px" height="128px" fill-rule="nonzero"><defs><linearGradient x1="20.019" y1="3.998" x2="20.019" y2="60.889" gradientUnits="userSpaceOnUse" id="color-1"><stop offset="0" stop-color="#e4b010"></stop><stop offset="1" stop-color="#c822ff"></stop></linearGradient><linearGradient x1="23.344" y1="3.998" x2="23.344" y2="60.889" gradientUnits="userSpaceOnUse" id="color-2"><stop offset="0" stop-color="#e4b010"></stop><stop offset="1" stop-color="#c822ff"></stop></linearGradient><linearGradient x1="26.669" y1="3.998" x2="26.669" y2="60.889" gradientUnits="userSpaceOnUse" id="color-3"><stop offset="0" stop-color="#e4b010"></stop><stop offset="1" stop-color="#c822ff"></stop></linearGradient><linearGradient x1="32" y1="3.998" x2="32" y2="60.889" gradientUnits="userSpaceOnUse" id="color-4"><stop offset="0" stop-color="#e4b010"></stop><stop offset="1" stop-color="#c822ff"></stop></linearGradient><linearGradient x1="40.801" y1="3.998" x2="40.801" y2="60.889" gradientUnits="userSpaceOnUse" id="color-5"><stop offset="0" stop-color="#e4b010"></stop><stop offset="1" stop-color="#c822ff"></stop></linearGradient><linearGradient x1="40.803" y1="18.748" x2="40.803" y2="28.527" gradientUnits="userSpaceOnUse" id="color-6"><stop offset="0" stop-color="#6dc7ff"></stop><stop offset="1" stop-color="#e6abff"></stop></linearGradient></defs><g fill="none" fill-rule="nonzero" stroke="none" stroke-width="1" stroke-linecap="butt" stroke-linejoin="miter" stroke-miterlimit="10" stroke-dasharray="" stroke-dashoffset="0" font-family="none" font-weight="none" font-size="none" text-anchor="none" style="mix-blend-mode: normal"><g transform="scale(4,4)"><path d="M17.648,51.34l3.327,3.325l1.414,-1.414l-3.327,-3.325z" fill="url(#color-1)"></path><path d="M20.975,48.014l3.325,3.326l1.414,-1.414l-3.325,-3.326z" fill="url(#color-2)"></path><path d="M24.3,44.688l3.325,3.326l1.414,-1.414l-3.325,-3.326z" fill="url(#color-3)"></path><path d="M55.643,18.334l-9.977,-9.977c-3.14,-3.139 -8.248,-3.143 -11.39,0l-8.314,8.313c-3.141,3.141 -3.141,8.25 0,11.391l0.956,0.956l-19.245,19.246c-1.077,1.077 -1.671,2.51 -1.671,4.032c0,1.523 0.594,2.956 1.671,4.032c1.076,1.077 2.509,1.671 4.032,1.671c1.522,0 2.955,-0.594 4.032,-1.671l1.663,-1.662l-1.414,-1.414l-1.663,1.662c-1.398,1.4 -3.838,1.398 -5.236,0c-0.699,-0.699 -1.085,-1.629 -1.085,-2.618c0,-0.988 0.386,-1.919 1.085,-2.618l19.245,-19.246l1.912,1.912l-17.584,17.583l1.414,1.414l17.583,-17.583l1.912,1.912l-5.944,5.943l1.414,1.414l5.944,-5.943l0.956,0.956c1.57,1.57 3.633,2.355 5.695,2.355c2.062,0 4.125,-0.785 5.695,-2.355l8.313,-8.314c3.141,-3.141 3.141,-8.251 0.001,-11.391zM54.229,28.31l-8.313,8.314c-2.361,2.361 -6.201,2.361 -8.563,0l-9.977,-9.977c-2.36,-2.36 -2.36,-6.202 0,-8.563l8.314,-8.313c1.181,-1.18 2.73,-1.771 4.28,-1.771c1.551,0 3.101,0.591 4.281,1.771l9.977,9.977c2.361,2.36 2.361,6.201 0.001,8.562z" fill="url(#color-4)"></path><path d="M42.341,11.683c-1.306,-1.305 -3.432,-1.307 -4.739,0l-8.313,8.313c-0.634,0.633 -0.982,1.475 -0.982,2.37c0,0.895 0.35,1.736 0.982,2.369l9.977,9.977c0.633,0.633 1.474,0.982 2.369,0.982c0.895,0 1.737,-0.349 2.37,-0.982l8.313,-8.313c1.307,-1.307 1.307,-3.433 0,-4.739zM50.903,24.984l-8.313,8.313c-0.511,0.511 -1.398,0.513 -1.911,0l-9.977,-9.977c-0.256,-0.256 -0.396,-0.595 -0.396,-0.955c0,-0.361 0.141,-0.7 0.396,-0.956l8.313,-8.313c0.264,-0.264 0.609,-0.396 0.956,-0.396c0.346,0 0.691,0.132 0.955,0.396l9.977,9.977c0.527,0.528 0.527,1.384 0,1.911z" fill="url(#color-5)"></path><path d="M45.791,24.86l-3.325,3.325c-0.459,0.459 -1.204,0.459 -1.663,0l-4.988,-4.988c-0.459,-0.459 -0.459,-1.204 0,-1.663l3.325,-3.325c0.459,-0.459 1.204,-0.459 1.663,0l4.988,4.988c0.459,0.46 0.459,1.204 0,1.663z" fill="url(#color-6)"></path></g></g></svg>